<svg xmlns="http://www.w3.org/2000/svg" width="260" height="243" fill="none" viewBox="0 0 260 243"><path fill="#000" d="M158.978 104.922V242.986L116.442 220.832L158.978 104.922Z"/><path fill="#000" d="M247.062 14.1786L260 18.3731L214.806 44.4853L230.845 29.0956L247.062 14.1786Z"/><path fill="#000" d="M163.763 0H253.088L163.763 88.6162V0Z"/><path fill="#000" d="M158.8 3.83727e-06L158.8 88.6162L75.3238 88.6162L158.8 3.83727e-06Z"/><path fill="#000" d="M122.822 190.812L31.5474 93.5116L158.446 93.5115L122.822 190.812Z"/><path fill="#000" d="M28.7117 22.3313H47.7011L88.9707 67.9993L69.0643 88.6162H28.7117V22.3313Z"/><path fill="red" d="M20.8051 27.6482L20.7526 46.7893L0.193666 46.7327L20.8051 27.6482Z"/></svg>